<svg xmlns="http://www.w3.org/2000/svg" viewBox="0 0 64 64" role="img" aria-labelledby="title">
  <title id="title">Phakin Chawanpunya portfolio favicon</title>
  <rect width="64" height="64" rx="14" fill="#315ff4" />
  <path d="M14 47V17h16.2c6.8 0 11.2 3.8 11.2 9.7 0 6.1-4.5 9.9-11.5 9.9h-6.3V47H14Zm9.6-18.2h5.5c2.5 0 4-1.2 4-3.2s-1.5-3.1-4-3.1h-5.5v6.3Z" fill="#fbfaf5" />
  <path d="M43.5 47c-7.3 0-12.2-5-12.2-12.2 0-7.1 5.1-12.3 12.4-12.3 4.6 0 8.1 1.8 10.2 4.8l-5.4 4.1c-1.1-1.5-2.5-2.4-4.5-2.4-3.1 0-5.2 2.3-5.2 5.8 0 3.6 2.1 5.8 5.3 5.8 2 0 3.4-.8 4.7-2.5l5.4 3.8c-2.2 3.2-5.8 5.1-10.7 5.1Z" fill="#f1d670" />
</svg>
