<svg xmlns="http://www.w3.org/2000/svg" width="351.3" height="219.6" viewBox="0 0 351.3 219.6" role="img" aria-labelledby="t d"><title id="t">Elasticshop game top-up interface preview</title><desc id="d">Dark gaming top-up interface preview with an ELASTICSHOP wordmark, three game tiles, a package list with price rows and a highlighted top-up button.</desc><defs><radialGradient id="g0" cx="50.0%" cy="50.0%" r="0.500"><stop offset="0%" stop-color="rgba(255, 212, 0, 0.12)"/><stop offset="65%" stop-color="rgba(0, 0, 0, 0)"/></radialGradient><linearGradient id="g1" x1="14.6%" y1="14.6%" x2="85.4%" y2="85.4%"><stop offset="0%" stop-color="rgb(26, 26, 46)"/><stop offset="100%" stop-color="rgb(45, 27, 78)"/></linearGradient><linearGradient id="g2" x1="14.6%" y1="14.6%" x2="85.4%" y2="85.4%"><stop offset="0%" stop-color="rgb(26, 42, 26)"/><stop offset="100%" stop-color="rgb(15, 61, 26)"/></linearGradient><linearGradient id="g3" x1="14.6%" y1="14.6%" x2="85.4%" y2="85.4%"><stop offset="0%" stop-color="rgb(42, 26, 26)"/><stop offset="100%" stop-color="rgb(74, 26, 26)"/></linearGradient></defs><rect x="0" y="0" width="351.3" height="219.6" fill="rgb(13, 13, 13)"/><rect x="193.2" y="-65.9" width="193.2" height="193.2" rx="96.62" fill="url(#g0)"/><rect x="0" y="0" width="351.3" height="28.5" fill="rgb(17, 17, 17)"/><rect x="24.6" y="8.8" width="10" height="10" rx="3" fill="rgb(240, 68, 47)"/><text x="37.7" y="15.5" fill="rgb(245, 245, 245)" font-size="6.72" font-weight="800" letter-spacing="0.4" font-family="Inter, sans-serif">ELASTICSHOP</text><rect x="298.8" y="11.8" width="14" height="4" rx="2" fill="rgba(255, 255, 255, 0.15)"/><rect x="316.8" y="11.8" width="10" height="4" rx="2" fill="rgba(255, 255, 255, 0.15)"/><rect x="24.6" y="46.1" width="114.8" height="46" rx="8" fill="rgb(26, 26, 26)" stroke="rgba(255, 255, 255, 0.08)" stroke-width="1"/><rect x="25.6" y="47.1" width="112.8" height="28" fill="url(#g1)"/><rect x="28.6" y="50.1" width="15.5" height="6.5" rx="2" fill="rgb(255, 212, 0)"/><text x="31.6" y="54.4" fill="rgb(17, 17, 17)" font-size="4.48" font-weight="800" font-family="Inter, sans-serif">HOT</text><rect x="29.6" y="78.1" width="73.4" height="3" rx="1" fill="rgba(255, 255, 255, 0.6)"/><rect x="29.6" y="83.1" width="52.4" height="2" rx="1" fill="rgba(255, 255, 255, 0.25)"/><rect x="154.5" y="46.1" width="114.8" height="46" rx="8" fill="rgb(26, 26, 26)" stroke="rgb(240, 68, 47)" stroke-width="2"/><rect x="156.5" y="48.1" width="110.8" height="28" fill="url(#g2)"/><rect x="160.5" y="79.1" width="77.1" height="3" rx="1" fill="rgba(255, 255, 255, 0.6)"/><rect x="160.5" y="84.1" width="56.5" height="2" rx="1" fill="rgba(255, 255, 255, 0.25)"/><rect x="284.4" y="46.1" width="60.4" height="46" rx="8" fill="rgb(26, 26, 26)" stroke="rgba(255, 255, 255, 0.08)" stroke-width="1"/><rect x="285.4" y="47.1" width="58.4" height="28" fill="url(#g3)"/><rect x="289.4" y="78.1" width="30.3" height="3" rx="1" fill="rgba(255, 255, 255, 0.4)"/><text x="24.6" y="108.2" fill="rgba(255, 255, 255, 0.4)" font-size="5.12" font-weight="700" letter-spacing="0.41" font-family="Inter, sans-serif">SELECT PACKAGE</text><rect x="24.6" y="117.1" width="302.2" height="19.4" rx="6" fill="rgb(26, 26, 26)" stroke="rgba(255, 255, 255, 0.08)" stroke-width="1"/><rect x="31.6" y="121.8" width="10" height="10" rx="3" fill="rgb(255, 212, 0)"/><rect x="45.6" y="123.8" width="22" height="2.5" rx="1" fill="rgba(255, 255, 255, 0.7)"/><rect x="45.6" y="127.8" width="14" height="2" rx="1" fill="rgba(240, 68, 47, 0.7)"/><rect x="299.3" y="121.1" width="20.5" height="11.4" rx="3" fill="rgba(255, 212, 0, 0.15)" stroke="rgba(255, 212, 0, 0.3)" stroke-width="1"/><text x="304.3" y="127.9" fill="rgb(255, 212, 0)" font-size="4.48" font-weight="700" font-family="Inter, sans-serif">-15%</text><rect x="24.6" y="140.5" width="302.2" height="20" rx="6" fill="rgb(26, 26, 26)" stroke="rgb(240, 68, 47)" stroke-width="2"/><rect x="32.6" y="145.5" width="10" height="10" rx="3" fill="rgb(192, 132, 252)"/><rect x="46.6" y="147.5" width="26" height="2.5" rx="1" fill="rgba(255, 255, 255, 0.7)"/><rect x="46.6" y="151.5" width="16" height="2" rx="1" fill="rgba(240, 68, 47, 0.7)"/><rect x="311.8" y="147" width="7" height="7" rx="3.5" fill="rgb(240, 68, 47)"/><rect x="0" y="186.6" width="351.3" height="32.9" fill="rgb(17, 17, 17)"/><rect x="131" y="194.6" width="89.3" height="18" rx="6" fill="rgb(240, 68, 47)"/><text x="155" y="205.4" fill="rgb(255, 255, 255)" font-size="6.08" font-weight="800" letter-spacing="0.24" font-family="Inter, sans-serif">TOP UP NOW</text><rect x="0" y="27.5" width="351.3" height="1" fill="rgba(255, 212, 0, 0.18)"/><rect x="313.8" y="151" width="3" height="1" fill="rgb(255, 255, 255)" transform="translate(315.25 150.46) matrix(0.707107 0.707107 -0.707107 0.707107 0 -1.41421) translate(-315.25 -150.46)"/><rect x="315.8" y="149" width="1" height="3" fill="rgb(255, 255, 255)" transform="translate(315.25 150.46) matrix(0.707107 0.707107 -0.707107 0.707107 0 -1.41421) translate(-315.25 -150.46)"/><rect x="0" y="186.6" width="351.3" height="1" fill="rgba(255, 255, 255, 0.06)"/></svg>
