<svg xmlns="http://www.w3.org/2000/svg" width="351.3" height="219.6" viewBox="0 0 351.3 219.6" role="img" aria-labelledby="t d"><title id="t">LUMI Clinic landing page preview</title><desc id="d">Light editorial aesthetic clinic landing page preview with a LUMI wordmark, navigation, a headline block, a photo panel and a price list.</desc><defs><linearGradient id="g0" x1="6.7%" y1="25.0%" x2="93.3%" y2="75.0%"><stop offset="0%" stop-color="rgb(200, 161, 139)"/><stop offset="55%" stop-color="rgb(176, 132, 104)"/><stop offset="100%" stop-color="rgb(143, 106, 82)"/></linearGradient></defs><rect x="0" y="0" width="351.3" height="219.6" fill="rgb(246, 243, 238)"/><text x="28.1" y="46.3" fill="rgb(28, 23, 20)" font-size="11" font-weight="400" letter-spacing="2" font-family="Inter, sans-serif">LUMI</text><rect x="28.1" y="64.4" width="152.9" height="9" fill="rgb(28, 23, 20)"/><rect x="28.1" y="78.4" width="107.7" height="9" fill="rgb(28, 23, 20)"/><rect x="28.1" y="109.4" width="69.5" height="3" fill="rgb(74, 64, 56)"/><rect x="174" y="109.4" width="27.8" height="3" fill="rgb(156, 66, 33)"/><rect x="28.1" y="127.4" width="55.6" height="3" fill="rgb(74, 64, 56)"/><rect x="174" y="127.4" width="27.8" height="3" fill="rgb(156, 66, 33)"/><rect x="28.1" y="145.4" width="79.9" height="3" fill="rgb(74, 64, 56)"/><rect x="174" y="145.4" width="27.8" height="3" fill="rgb(156, 66, 33)"/><rect x="28.1" y="170.4" width="62" height="15" fill="rgb(28, 23, 20)"/><rect x="42.1" y="176.4" width="34" height="3" fill="rgb(246, 243, 238)"/><rect x="222.9" y="0" width="128.4" height="219.6" fill="url(#g0)"/><rect x="289.7" y="0" width="1.5" height="219.6" fill="rgb(246, 243, 238)"/><rect x="289.7" y="101" width="16" height="16" rx="8" fill="rgb(246, 243, 238)" transform="translate(297.69 109) matrix(1 0 0 1 -8 -8) translate(-297.69 -109)"/><rect x="233.2" y="17.6" width="28" height="8" fill="rgba(28, 23, 20, 0.55)"/><rect x="239.2" y="20.6" width="16" height="2" fill="rgb(246, 243, 238)"/><rect x="315.1" y="17.6" width="26" height="8" fill="rgba(28, 23, 20, 0.55)"/><rect x="321.1" y="20.6" width="14" height="2" fill="rgb(246, 243, 238)"/><rect x="222.9" y="203.1" width="128.4" height="16.5" fill="rgb(28, 23, 20)"/><rect x="232.9" y="210.1" width="36.9" height="2.5" fill="rgb(246, 243, 238)"/><rect x="319.6" y="210.1" width="21.7" height="2.5" fill="rgb(217, 108, 63)"/><rect x="28.1" y="101.4" width="173.7" height="1" fill="rgba(28, 23, 20, 0.18)"/><rect x="28.1" y="119.4" width="173.7" height="1" fill="rgba(28, 23, 20, 0.18)"/><rect x="28.1" y="137.4" width="173.7" height="1" fill="rgba(28, 23, 20, 0.18)"/><rect x="28.1" y="155.4" width="173.7" height="1" fill="rgba(28, 23, 20, 0.18)"/></svg>
