<svg xmlns="http://www.w3.org/2000/svg" width="351.3" height="219.6" viewBox="0 0 351.3 219.6" role="img" aria-labelledby="t d"><title id="t">NOIR Coffee landing page preview</title><desc id="d">Dark luxury cafe landing page preview with a NOIR wordmark, navigation row, stacked headline bars, a gold accent bar and an outlined button.</desc><defs><radialGradient id="g0" cx="60.0%" cy="30.0%" r="0.648"><stop offset="0%" stop-color="rgba(201, 168, 76, 0.06)"/><stop offset="65%" stop-color="rgba(0, 0, 0, 0)"/></radialGradient><linearGradient id="g1" x1="0.0%" y1="50.0%" x2="100.0%" y2="50.0%"><stop offset="0%" stop-color="rgba(0, 0, 0, 0)"/><stop offset="40%" stop-color="rgba(201, 168, 76, 0.18)"/><stop offset="100%" stop-color="rgba(201, 168, 76, 0.08)"/></linearGradient></defs><rect x="0" y="0" width="351.3" height="219.6" fill="rgb(10, 8, 6)"/><rect x="0" y="0" width="351.3" height="219.6" fill="url(#g0)"/><rect x="0" y="0" width="351.3" height="26.3" fill="rgba(10, 8, 6, 0.9)"/><text x="28.1" y="12.5" fill="rgb(250, 248, 244)" font-size="7.04" font-weight="700" letter-spacing="1.27" font-family="Inter, sans-serif">NOIR</text><rect x="267.2" y="11.9" width="10" height="1.5" rx="1" fill="rgba(250, 248, 244, 0.25)"/><rect x="282.2" y="11.9" width="13" height="1.5" rx="1" fill="rgba(250, 248, 244, 0.2)"/><rect x="300.2" y="11.9" width="10" height="1.5" rx="1" fill="rgba(250, 248, 244, 0.2)"/><rect x="319.2" y="10.7" width="4" height="4" rx="50" fill="rgb(201, 168, 76)"/><rect x="31.6" y="75" width="18" height="1" rx="99" fill="rgb(201, 168, 76)"/><rect x="54.6" y="74.5" width="28" height="2" rx="1" fill="rgba(201, 168, 76, 0.3)"/><rect x="31.6" y="84.5" width="236.2" height="9" rx="1" fill="rgb(250, 248, 244)" opacity="0.9"/><rect x="31.6" y="97.5" width="184.4" height="9" rx="1" fill="rgb(250, 248, 244)" opacity="0.9"/><rect x="31.6" y="110.5" width="132.5" height="9" rx="1" fill="rgb(201, 168, 76)" opacity="0.85"/><rect x="31.6" y="129.5" width="219" height="2" rx="1" fill="rgba(250, 248, 244, 0.2)"/><rect x="31.6" y="134.5" width="167.1" height="2" rx="1" fill="rgba(250, 248, 244, 0.15)"/><rect x="31.6" y="148.5" width="50" height="12" rx="2" fill="rgba(0, 0, 0, 0)" stroke="rgba(201, 168, 76, 0.55)" stroke-width="1"/><rect x="44.6" y="153.5" width="24" height="2" rx="1" fill="rgb(201, 168, 76)"/><rect x="0" y="208.6" width="351.3" height="11" fill="url(#g1)"/><rect x="0" y="25.3" width="351.3" height="1" fill="rgba(201, 168, 76, 0.15)"/></svg>
